<svg width="307" height="69" viewBox="0 0 307 69" fill="none" xmlns="http://www.w3.org/2000/svg">
<path d="M103.114 14.4645H119.59C123.562 14.4645 126.921 15.1996 129.669 16.67C132.2 17.932 134.348 20.0741 135.831 22.8138C137.22 25.5203 137.932 28.6395 137.883 31.8076C137.914 34.9902 137.175 38.1165 135.753 40.8157C134.167 43.667 131.9 45.8913 129.241 47.2029C126.328 48.7783 122.717 49.5636 118.407 49.5588H103.114V14.4645ZM118.238 40.6295C120.914 40.6295 122.97 39.837 124.407 38.2521C125.135 37.4141 125.704 36.4012 126.076 35.2811C126.447 34.161 126.613 32.9596 126.561 31.7574C126.606 30.6415 126.459 29.5264 126.129 28.48C125.799 27.4337 125.293 26.4779 124.642 25.6709C123.354 24.1528 121.417 23.3914 118.83 23.3866H113.676V40.6295H118.238Z" fill="#5865F2"/>
<path d="M162.556 49.5015C160.382 48.8553 158.303 47.8245 156.388 46.4439V38.1233C158.06 39.5661 159.942 40.6294 161.94 41.2596C164.126 42.0509 166.397 42.4633 168.682 42.4841C169.471 42.534 170.259 42.3725 170.987 42.0115C171.506 41.6964 171.766 41.2954 171.766 40.8801C171.771 40.6481 171.737 40.4171 171.664 40.2016C171.592 39.986 171.482 39.7905 171.343 39.627C170.861 39.1871 170.296 38.8945 169.696 38.7749L164.626 37.4215C161.721 36.6195 159.659 35.5096 158.44 34.0918C157.828 33.3594 157.351 32.4841 157.039 31.5214C156.727 30.5586 156.588 29.5295 156.629 28.4993C156.609 26.6324 157.182 24.8248 158.235 23.4368C159.483 21.8705 161.056 20.7221 162.797 20.1071C165.038 19.2715 167.378 18.8725 169.726 18.9256C171.918 18.9011 174.104 19.2043 176.232 19.8278C177.951 20.311 179.602 21.0877 181.133 22.1335V30.0102C179.697 29.022 178.154 28.2727 176.546 27.7833C174.804 27.2291 173.008 26.9498 171.205 26.9526C168.557 26.9526 167.233 27.4873 167.233 28.5566C167.229 28.7948 167.284 29.0291 167.391 29.2304C167.499 29.4316 167.654 29.5908 167.837 29.688C168.56 30.0529 169.318 30.3126 170.094 30.4614L174.319 31.3636C177.063 31.9365 179.109 32.9389 180.457 34.3711C181.805 35.8032 182.481 37.8989 182.485 40.6581C182.506 42.109 182.207 43.5414 181.617 44.8127C181.028 46.084 180.168 47.15 179.123 47.9047C176.898 49.6758 173.721 50.5589 169.593 50.5541C167.219 50.5585 164.855 50.2048 162.556 49.5015Z" fill="#5865F2"/>
<path d="M192.467 48.4489C190.209 47.2176 188.305 45.2255 186.993 42.7204C185.77 40.2638 185.143 37.4533 185.183 34.6002C185.146 31.7488 185.806 28.9459 187.084 26.5302C188.445 24.0645 190.383 22.1234 192.66 20.9449C195.429 19.5135 198.429 18.8193 201.448 18.9113C205.673 18.9113 209.179 19.9639 211.967 22.0691V31.2562C210.907 30.4102 209.748 29.7516 208.527 29.3014C207.161 28.7896 205.735 28.5359 204.303 28.5495C201.683 28.5495 199.633 29.1176 198.152 30.2537C197.487 30.6945 196.932 31.3365 196.543 32.1146C196.154 32.8926 195.947 33.7789 195.94 34.6832C195.934 35.5876 196.13 36.4777 196.508 37.2631C196.886 38.0484 197.433 38.701 198.092 39.1544C199.529 40.3049 201.613 40.8801 204.345 40.8801C205.755 40.8841 207.158 40.6429 208.509 40.1641C209.742 39.7448 210.926 39.1459 212.034 38.3811V47.2603C208.768 49.5193 205.04 50.6641 201.261 50.5685C198.232 50.6665 195.224 49.9416 192.467 48.4489Z" fill="#5865F2"/>
<path d="M222.487 48.449C220.203 47.2116 218.266 45.2236 216.904 42.7205C215.621 40.2697 214.955 37.4349 214.985 34.5502C214.944 31.6996 215.612 28.8978 216.904 26.4944C218.273 24.0549 220.202 22.1316 222.463 20.9521C228.017 18.2787 234.23 18.2787 239.784 20.9521C242.036 22.1226 243.957 24.0365 245.319 26.4658C246.603 28.878 247.264 31.6833 247.22 34.5358C247.25 37.4177 246.591 40.2507 245.319 42.7061C243.972 45.211 242.044 47.2005 239.766 48.4347C237.036 49.8237 234.097 50.5399 231.127 50.5399C228.156 50.5399 225.217 49.8237 222.487 48.4347V48.449ZM235.324 39.5555C235.846 38.9161 236.252 38.1569 236.518 37.3245C236.784 36.4921 236.903 35.6041 236.869 34.7149C236.906 33.834 236.787 32.9537 236.521 32.1302C236.255 31.3067 235.847 30.5579 235.324 29.9316C234.756 29.3139 234.09 28.8378 233.364 28.5315C232.639 28.2252 231.868 28.095 231.099 28.1486C230.331 28.1006 229.562 28.2335 228.837 28.5395C228.112 28.8455 227.445 29.3186 226.875 29.9316C226.353 30.5593 225.947 31.3085 225.682 32.1318C225.418 32.9551 225.299 33.8346 225.336 34.7149C225.302 35.6034 225.421 36.4908 225.685 37.323C225.95 38.1552 226.355 38.9148 226.875 39.5555C227.439 40.1808 228.105 40.6648 228.83 40.9785C229.556 41.2923 230.328 41.4293 231.099 41.3814C231.871 41.4347 232.644 41.3002 233.371 40.9862C234.097 40.6722 234.762 40.1853 235.324 39.5555Z" fill="#5865F2"/>
<path d="M272.611 20.7659V31.6072C271.349 30.7142 269.895 30.2786 268.428 30.354C266.177 30.354 264.439 31.1704 263.232 32.7887C262.025 34.407 261.421 36.9204 261.421 40.3288V49.5517H251.07V20.2289H261.21V29.5377C261.773 26.1293 262.682 23.6159 263.938 21.9976C264.546 21.2018 265.293 20.572 266.127 20.1517C266.96 19.7314 267.861 19.5305 268.766 19.5629C270.118 19.5192 271.452 19.9367 272.611 20.7659Z" fill="#5865F2"/>
<path d="M307 13.462V49.5517H296.649V42.9639C295.869 45.3092 294.466 47.2897 292.654 48.6065C290.653 49.959 288.377 50.6328 286.075 50.5542C283.909 50.614 281.777 49.9087 279.95 48.5277C278.18 47.1637 276.77 45.2353 275.882 42.9639C274.913 40.4566 274.43 37.7234 274.469 34.9655C274.401 32.106 274.915 29.2691 275.966 26.6949C276.933 24.3371 278.441 22.3513 280.318 20.9664C282.247 19.5799 284.466 18.8675 286.721 18.9113C291.646 18.9113 294.955 21.4509 296.649 26.5302V13.462H307ZM295.128 39.3836C295.656 38.7675 296.07 38.0279 296.343 37.2117C296.616 36.3956 296.743 35.5208 296.716 34.6432C296.738 33.7919 296.608 32.9446 296.335 32.1572C296.061 31.3697 295.65 30.66 295.128 30.0747C293.944 28.9309 292.464 28.3063 290.937 28.3063C289.41 28.3063 287.93 28.9309 286.745 30.0747C286.225 30.6734 285.817 31.3954 285.548 32.1937C285.279 32.9919 285.154 33.8485 285.182 34.7077C285.156 35.5749 285.283 36.4391 285.555 37.2445C285.827 38.0499 286.239 38.7786 286.763 39.3836C287.318 39.9951 287.97 40.4691 288.681 40.7778C289.392 41.0864 290.147 41.2235 290.904 41.1809C291.673 41.2313 292.444 41.0983 293.169 40.7896C293.895 40.4809 294.561 40.0028 295.128 39.3836Z" fill="#5865F2"/>
<path d="M65.0006 5.77864C59.9591 3.04018 54.6369 1.09742 49.1699 0C48.4218 1.58671 47.7449 3.21923 47.142 4.89072C41.3186 3.84958 35.3966 3.84958 29.5731 4.89072C28.97 3.2194 28.2931 1.58691 27.5453 0C22.0747 1.10669 16.749 3.05406 11.7025 5.79296C1.6838 23.3795 -1.0321 40.5293 0.325851 57.4355C6.19304 62.5787 12.7601 66.4902 19.7416 69C21.3136 66.4915 22.7046 63.8302 23.8999 61.0445C21.6296 60.0385 19.4384 58.7973 17.3516 57.3353C17.9008 56.8627 18.4379 56.3758 18.957 55.9032C25.0291 59.2912 31.6565 61.0478 38.3666 61.0478C45.0767 61.0478 51.7042 59.2912 57.7763 55.9032C58.3014 56.4116 58.8385 56.8985 59.3817 57.3353C57.2909 58.7997 55.0956 60.0432 52.8213 61.0517C54.0151 63.8361 55.4062 66.4951 56.9796 69C63.9671 66.5003 70.5392 62.5907 76.4074 57.4427C78.0007 37.8369 73.6855 20.8446 65.0006 5.77864ZM25.62 47.0383C21.8358 47.0383 18.7095 42.9639 18.7095 37.9514C18.7095 32.939 21.7272 28.8288 25.6079 28.8288C29.4886 28.8288 32.5908 32.939 32.5244 37.9514C32.458 42.9639 29.4766 47.0383 25.62 47.0383ZM51.1133 47.0383C47.3231 47.0383 44.2088 42.9639 44.2088 37.9514C44.2088 32.939 47.2265 28.8288 51.1133 28.8288C55 28.8288 58.0781 32.939 58.0117 37.9514C57.9453 42.9639 54.9699 47.0383 51.1133 47.0383Z" fill="#5865F2"/>
<path d="M146.611 23.3509C149.461 23.3509 151.771 20.8888 151.771 17.8515C151.771 14.8143 149.461 12.3522 146.611 12.3522C143.761 12.3522 141.45 14.8143 141.45 17.8515C141.45 20.8888 143.761 23.3509 146.611 23.3509Z" fill="#5865F2"/>
<path d="M141.444 27.1389C143.079 27.954 144.834 28.3739 146.608 28.3739C148.381 28.3739 150.136 27.954 151.771 27.1389V49.7093H141.444V27.1389Z" fill="#5865F2"/>
</svg>
